<svg width="205" height="62" viewBox="0 0 205 62" fill="none" xmlns="http://www.w3.org/2000/svg">
<g clip-path="url(#clip0_27_19590)">
<path d="M0 31C0 13.8792 13.8792 0 31 0H174C191.121 0 205 13.8792 205 31C205 48.1208 191.121 62 174 62H31C13.8792 62 0 48.1208 0 31Z" fill="#3048A9"/>
<path d="M44.8217 38H41.2217V21.92H44.8217V38ZM54.4697 32H42.2297V28.784H54.4697V32ZM54.8297 25.16H42.2297V21.92H54.8297V25.16ZM59.9623 38H56.3623V25.976H59.6983V29.408L59.9623 29.528V38ZM59.9623 31.04H59.2423V29.168H59.9143C60.0263 28.512 60.2423 27.928 60.5623 27.416C60.8983 26.888 61.3463 26.48 61.9063 26.192C62.4663 25.888 63.1463 25.736 63.9463 25.736C64.8583 25.736 65.5863 25.928 66.1303 26.312C66.6903 26.68 67.0983 27.184 67.3543 27.824C67.6103 28.448 67.7383 29.152 67.7383 29.936V31.928H64.1383V30.68C64.1383 30.008 63.9863 29.528 63.6823 29.24C63.3943 28.936 62.8823 28.784 62.1463 28.784C61.3463 28.784 60.7783 28.968 60.4423 29.336C60.1223 29.704 59.9623 30.272 59.9623 31.04ZM75.426 38.24C74.098 38.24 72.922 38.016 71.898 37.568C70.874 37.12 70.082 36.432 69.522 35.504C68.962 34.576 68.682 33.408 68.682 32C68.682 30.72 68.962 29.616 69.522 28.688C70.082 27.744 70.858 27.016 71.85 26.504C72.858 25.992 74.026 25.736 75.354 25.736C76.666 25.736 77.81 25.96 78.786 26.408C79.778 26.856 80.546 27.52 81.09 28.4C81.634 29.264 81.906 30.32 81.906 31.568C81.906 31.776 81.898 31.968 81.882 32.144C81.866 32.32 81.842 32.512 81.81 32.72H71.01V30.824H79.266L78.45 32C78.45 31.84 78.45 31.688 78.45 31.544C78.45 31.4 78.45 31.256 78.45 31.112C78.45 30.2 78.202 29.544 77.706 29.144C77.21 28.744 76.402 28.544 75.282 28.544C74.066 28.544 73.218 28.784 72.738 29.264C72.258 29.728 72.018 30.472 72.018 31.496V32.408C72.018 33.432 72.258 34.184 72.738 34.664C73.218 35.128 74.074 35.36 75.306 35.36C76.362 35.36 77.106 35.224 77.538 34.952C77.97 34.68 78.186 34.288 78.186 33.776V33.536H81.786V33.8C81.786 34.664 81.522 35.432 80.994 36.104C80.466 36.776 79.722 37.304 78.762 37.688C77.818 38.056 76.706 38.24 75.426 38.24ZM89.8167 38.24C88.4887 38.24 87.3127 38.016 86.2887 37.568C85.2647 37.12 84.4727 36.432 83.9127 35.504C83.3527 34.576 83.0727 33.408 83.0727 32C83.0727 30.72 83.3527 29.616 83.9127 28.688C84.4727 27.744 85.2487 27.016 86.2407 26.504C87.2487 25.992 88.4167 25.736 89.7447 25.736C91.0567 25.736 92.2007 25.96 93.1767 26.408C94.1687 26.856 94.9367 27.52 95.4807 28.4C96.0247 29.264 96.2967 30.32 96.2967 31.568C96.2967 31.776 96.2887 31.968 96.2727 32.144C96.2567 32.32 96.2327 32.512 96.2007 32.72H85.4007V30.824H93.6567L92.8407 32C92.8407 31.84 92.8407 31.688 92.8407 31.544C92.8407 31.4 92.8407 31.256 92.8407 31.112C92.8407 30.2 92.5927 29.544 92.0967 29.144C91.6007 28.744 90.7927 28.544 89.6727 28.544C88.4567 28.544 87.6087 28.784 87.1287 29.264C86.6487 29.728 86.4087 30.472 86.4087 31.496V32.408C86.4087 33.432 86.6487 34.184 87.1287 34.664C87.6087 35.128 88.4647 35.36 89.6967 35.36C90.7527 35.36 91.4967 35.224 91.9287 34.952C92.3607 34.68 92.5767 34.288 92.5767 33.776V33.536H96.1767V33.8C96.1767 34.664 95.9127 35.432 95.3847 36.104C94.8567 36.776 94.1127 37.304 93.1527 37.688C92.2087 38.056 91.0967 38.24 89.8167 38.24ZM106.902 38.24C105.654 38.24 104.598 37.984 103.734 37.472C102.87 36.96 102.214 36.24 101.766 35.312C101.318 34.368 101.094 33.264 101.094 32C101.094 30.72 101.31 29.616 101.742 28.688C102.19 27.744 102.83 27.016 103.662 26.504C104.51 25.992 105.526 25.736 106.71 25.736C108.134 25.736 109.23 26.056 109.998 26.696C110.766 27.336 111.246 28.16 111.438 29.168H112.11V31.88H111.654C111.654 30.84 111.35 30.104 110.742 29.672C110.15 29.24 109.278 29.024 108.126 29.024C107.358 29.024 106.718 29.12 106.206 29.312C105.71 29.504 105.342 29.816 105.102 30.248C104.862 30.664 104.742 31.248 104.742 32C104.742 32.72 104.862 33.296 105.102 33.728C105.342 34.16 105.71 34.472 106.206 34.664C106.718 34.856 107.358 34.952 108.126 34.952C108.894 34.952 109.534 34.856 110.046 34.664C110.574 34.472 110.974 34.168 111.246 33.752C111.518 33.32 111.654 32.76 111.654 32.072H112.11L112.35 34.664H111.702C111.478 35.848 110.966 36.744 110.166 37.352C109.366 37.944 108.278 38.24 106.902 38.24ZM115.254 38H111.894V34.448L111.654 34.136V21.92H115.254V38ZM120.759 38H117.159V25.976H120.495V29.408L120.759 29.528V38ZM120.759 31.04H120.039V29.168H120.711C120.823 28.512 121.039 27.928 121.359 27.416C121.695 26.888 122.143 26.48 122.703 26.192C123.263 25.888 123.943 25.736 124.743 25.736C125.655 25.736 126.383 25.928 126.927 26.312C127.487 26.68 127.895 27.184 128.151 27.824C128.407 28.448 128.535 29.152 128.535 29.936V31.928H124.935V30.68C124.935 30.008 124.783 29.528 124.479 29.24C124.191 28.936 123.679 28.784 122.943 28.784C122.143 28.784 121.575 28.968 121.239 29.336C120.919 29.704 120.759 30.272 120.759 31.04ZM141.983 38H138.623V35.144L138.431 35.096V30.896C138.431 30.112 138.231 29.584 137.831 29.312C137.447 29.04 136.775 28.904 135.815 28.904C134.903 28.904 134.247 29.04 133.847 29.312C133.447 29.584 133.247 30.064 133.247 30.752V30.848H129.623V30.776C129.623 29.784 129.887 28.912 130.415 28.16C130.943 27.392 131.687 26.8 132.647 26.384C133.623 25.952 134.767 25.736 136.079 25.736C137.423 25.736 138.527 25.952 139.391 26.384C140.271 26.816 140.919 27.424 141.335 28.208C141.767 28.976 141.983 29.888 141.983 30.944V38ZM133.535 38.24C132.239 38.24 131.223 37.952 130.487 37.376C129.751 36.8 129.383 36.016 129.383 35.024C129.383 34.416 129.527 33.896 129.815 33.464C130.103 33.032 130.535 32.688 131.111 32.432C131.687 32.16 132.407 31.976 133.271 31.88L138.671 31.328V33.392L134.255 33.896C133.823 33.928 133.503 34.016 133.295 34.16C133.103 34.288 133.007 34.496 133.007 34.784C133.007 35.104 133.135 35.336 133.391 35.48C133.647 35.624 134.039 35.696 134.567 35.696C135.431 35.696 136.143 35.616 136.703 35.456C137.263 35.296 137.687 35.04 137.975 34.688C138.279 34.32 138.431 33.832 138.431 33.224L138.767 33.2V35.24H138.431C138.159 36.168 137.607 36.904 136.775 37.448C135.959 37.976 134.879 38.24 133.535 38.24ZM150.624 38H146.136L142.848 25.976H146.568L147.984 31.472L148.488 35.216H148.728L149.688 31.112L151.512 25.976H156.144L157.944 31.112L158.904 35.216H159.144L159.672 31.472L161.064 25.976H164.736L161.328 38H156.84L154.776 32.216L153.888 28.904H153.624L152.712 32.216L150.624 38Z" fill="#EBCDCA"/>
</g>
<defs>
<clipPath id="clip0_27_19590">
<rect width="205" height="62" fill="white"/>
</clipPath>
</defs>
</svg>
