<svg width="205" height="62" viewBox="0 0 205 62" fill="none" xmlns="http://www.w3.org/2000/svg">
<g clip-path="url(#clip0_27_19587)">
<path d="M0 31C0 13.8792 13.8792 0 31 0H174C191.121 0 205 13.8792 205 31C205 48.1208 191.121 62 174 62H31C13.8792 62 0 48.1208 0 31Z" fill="#3048A9"/>
<path d="M38.6225 38H35.0225V21.92H38.6225V38ZM57.506 38H53.906V31.712C53.906 30.736 53.682 30.04 53.234 29.624C52.786 29.192 52.01 28.976 50.906 28.976C49.754 28.976 48.946 29.216 48.482 29.696C48.034 30.16 47.81 30.904 47.81 31.928H47.354L47.09 29.672H47.762C47.874 29 48.114 28.368 48.482 27.776C48.85 27.168 49.37 26.68 50.042 26.312C50.73 25.928 51.602 25.736 52.658 25.736C53.746 25.736 54.65 25.952 55.37 26.384C56.09 26.8 56.626 27.368 56.978 28.088C57.33 28.808 57.506 29.616 57.506 30.512V38ZM47.81 38H44.21V25.976H47.546V29.72L47.81 29.84V38ZM65.7112 38.24C64.3832 38.24 63.2072 38.016 62.1832 37.568C61.1592 37.12 60.3672 36.432 59.8072 35.504C59.2472 34.576 58.9672 33.408 58.9672 32C58.9672 30.72 59.2472 29.616 59.8072 28.688C60.3672 27.744 61.1432 27.016 62.1352 26.504C63.1432 25.992 64.3112 25.736 65.6392 25.736C66.9512 25.736 68.0952 25.96 69.0712 26.408C70.0632 26.856 70.8312 27.52 71.3752 28.4C71.9192 29.264 72.1912 30.32 72.1912 31.568C72.1912 31.776 72.1832 31.968 72.1672 32.144C72.1512 32.32 72.1272 32.512 72.0952 32.72H61.2952V30.824H69.5512L68.7352 32C68.7352 31.84 68.7352 31.688 68.7352 31.544C68.7352 31.4 68.7352 31.256 68.7352 31.112C68.7352 30.2 68.4872 29.544 67.9912 29.144C67.4952 28.744 66.6872 28.544 65.5672 28.544C64.3512 28.544 63.5032 28.784 63.0232 29.264C62.5432 29.728 62.3032 30.472 62.3032 31.496V32.408C62.3032 33.432 62.5432 34.184 63.0232 34.664C63.5032 35.128 64.3592 35.36 65.5912 35.36C66.6472 35.36 67.3912 35.224 67.8232 34.952C68.2552 34.68 68.4712 34.288 68.4712 33.776V33.536H72.0712V33.8C72.0712 34.664 71.8072 35.432 71.2792 36.104C70.7512 36.776 70.0072 37.304 69.0472 37.688C68.1032 38.056 66.9912 38.24 65.7112 38.24ZM80.1018 38.24C78.7738 38.24 77.5978 38.016 76.5738 37.568C75.5498 37.12 74.7578 36.432 74.1978 35.504C73.6378 34.576 73.3578 33.408 73.3578 32C73.3578 30.72 73.6378 29.616 74.1978 28.688C74.7578 27.744 75.5338 27.016 76.5258 26.504C77.5338 25.992 78.7018 25.736 80.0298 25.736C81.3418 25.736 82.4858 25.96 83.4618 26.408C84.4538 26.856 85.2218 27.52 85.7658 28.4C86.3098 29.264 86.5818 30.32 86.5818 31.568C86.5818 31.776 86.5738 31.968 86.5578 32.144C86.5418 32.32 86.5178 32.512 86.4858 32.72H75.6858V30.824H83.9418L83.1258 32C83.1258 31.84 83.1258 31.688 83.1258 31.544C83.1258 31.4 83.1258 31.256 83.1258 31.112C83.1258 30.2 82.8778 29.544 82.3818 29.144C81.8858 28.744 81.0778 28.544 79.9578 28.544C78.7418 28.544 77.8938 28.784 77.4138 29.264C76.9338 29.728 76.6938 30.472 76.6938 31.496V32.408C76.6938 33.432 76.9338 34.184 77.4138 34.664C77.8938 35.128 78.7498 35.36 79.9818 35.36C81.0378 35.36 81.7818 35.224 82.2138 34.952C82.6458 34.68 82.8618 34.288 82.8618 33.776V33.536H86.4618V33.8C86.4618 34.664 86.1978 35.432 85.6698 36.104C85.1418 36.776 84.3978 37.304 83.4378 37.688C82.4938 38.056 81.3818 38.24 80.1018 38.24ZM93.4844 38.24C92.2364 38.24 91.1804 37.984 90.3164 37.472C89.4524 36.96 88.7964 36.24 88.3484 35.312C87.9004 34.368 87.6764 33.264 87.6764 32C87.6764 30.72 87.8924 29.616 88.3244 28.688C88.7724 27.744 89.4124 27.016 90.2444 26.504C91.0924 25.992 92.1084 25.736 93.2924 25.736C94.7164 25.736 95.8124 26.056 96.5804 26.696C97.3484 27.336 97.8284 28.16 98.0204 29.168H98.6924V31.88H98.2364C98.2364 30.84 97.9324 30.104 97.3244 29.672C96.7324 29.24 95.8604 29.024 94.7084 29.024C93.9404 29.024 93.3004 29.12 92.7884 29.312C92.2924 29.504 91.9244 29.816 91.6844 30.248C91.4444 30.664 91.3244 31.248 91.3244 32C91.3244 32.72 91.4444 33.296 91.6844 33.728C91.9244 34.16 92.2924 34.472 92.7884 34.664C93.3004 34.856 93.9404 34.952 94.7084 34.952C95.4764 34.952 96.1164 34.856 96.6284 34.664C97.1564 34.472 97.5564 34.168 97.8284 33.752C98.1004 33.32 98.2364 32.76 98.2364 32.072H98.6924L98.9324 34.664H98.2844C98.0604 35.848 97.5484 36.744 96.7484 37.352C95.9484 37.944 94.8604 38.24 93.4844 38.24ZM101.836 38H98.4764V34.448L98.2364 34.136V21.92H101.836V38ZM111.044 38H107.444V25.976H111.044V38ZM111.044 24.752H107.444V21.92H111.044V24.752ZM126.225 38H122.625V31.712C122.625 30.736 122.401 30.04 121.953 29.624C121.505 29.192 120.729 28.976 119.625 28.976C118.473 28.976 117.665 29.216 117.201 29.696C116.753 30.16 116.529 30.904 116.529 31.928H116.073L115.809 29.672H116.481C116.593 29 116.833 28.368 117.201 27.776C117.569 27.168 118.089 26.68 118.761 26.312C119.449 25.928 120.321 25.736 121.377 25.736C122.465 25.736 123.369 25.952 124.089 26.384C124.809 26.8 125.345 27.368 125.697 28.088C126.049 28.808 126.225 29.616 126.225 30.512V38ZM116.529 38H112.929V25.976H116.265V29.72L116.529 29.84V38ZM134.118 38.24C132.102 38.24 130.55 37.864 129.462 37.112C128.374 36.344 127.83 35.264 127.83 33.872V33.8H131.43V34.016C131.43 34.56 131.622 34.928 132.006 35.12C132.406 35.296 133.118 35.384 134.142 35.384C135.102 35.384 135.734 35.304 136.038 35.144C136.358 34.968 136.518 34.704 136.518 34.352C136.518 34.016 136.398 33.784 136.158 33.656C135.918 33.512 135.446 33.392 134.742 33.296L131.358 32.888C130.158 32.76 129.23 32.424 128.574 31.88C127.934 31.336 127.614 30.552 127.614 29.528C127.614 28.824 127.822 28.192 128.238 27.632C128.654 27.056 129.294 26.6 130.158 26.264C131.038 25.912 132.166 25.736 133.542 25.736C134.854 25.736 135.966 25.904 136.878 26.24C137.806 26.56 138.51 27.048 138.99 27.704C139.47 28.36 139.71 29.176 139.71 30.152V30.224H136.11V30.08C136.11 29.744 136.038 29.472 135.894 29.264C135.766 29.04 135.502 28.872 135.102 28.76C134.718 28.648 134.158 28.592 133.422 28.592C132.526 28.592 131.926 28.68 131.622 28.856C131.318 29.016 131.166 29.288 131.166 29.672C131.166 29.976 131.286 30.208 131.526 30.368C131.782 30.512 132.302 30.64 133.086 30.752L135.654 31.064C137.254 31.24 138.39 31.608 139.062 32.168C139.734 32.728 140.07 33.504 140.07 34.496C140.07 35.248 139.83 35.904 139.35 36.464C138.87 37.024 138.19 37.464 137.31 37.784C136.43 38.088 135.366 38.24 134.118 38.24ZM150.019 38.24C148.627 38.24 147.539 37.928 146.755 37.304C145.987 36.664 145.499 35.816 145.291 34.76H144.667V32.168H145.123C145.123 32.84 145.259 33.384 145.531 33.8C145.803 34.216 146.195 34.512 146.707 34.688C147.235 34.864 147.875 34.952 148.627 34.952C149.411 34.952 150.051 34.856 150.547 34.664C151.043 34.472 151.411 34.16 151.651 33.728C151.891 33.296 152.011 32.72 152.011 32C152.011 31.248 151.891 30.664 151.651 30.248C151.411 29.816 151.043 29.512 150.547 29.336C150.051 29.144 149.419 29.048 148.651 29.048C147.483 29.048 146.603 29.272 146.011 29.72C145.419 30.152 145.123 30.904 145.123 31.976H144.667L144.403 29.264H145.099C145.307 28.112 145.803 27.24 146.587 26.648C147.387 26.04 148.491 25.736 149.899 25.736C151.131 25.736 152.171 25.992 153.019 26.504C153.883 27.016 154.539 27.744 154.987 28.688C155.435 29.616 155.659 30.72 155.659 32C155.659 33.264 155.435 34.368 154.987 35.312C154.555 36.24 153.915 36.96 153.067 37.472C152.235 37.984 151.219 38.24 150.019 38.24ZM145.123 42.08H141.523V25.976H144.859V29.552L145.123 29.864V42.08ZM163.563 38.24C162.203 38.24 161.003 37.984 159.963 37.472C158.939 36.96 158.139 36.24 157.563 35.312C156.987 34.368 156.699 33.264 156.699 32C156.699 30.72 156.987 29.616 157.563 28.688C158.139 27.744 158.939 27.016 159.963 26.504C161.003 25.992 162.203 25.736 163.563 25.736C164.939 25.736 166.139 25.992 167.163 26.504C168.187 27.016 168.987 27.744 169.563 28.688C170.139 29.616 170.427 30.72 170.427 32C170.427 33.264 170.139 34.368 169.563 35.312C168.987 36.24 168.187 36.96 167.163 37.472C166.139 37.984 164.939 38.24 163.563 38.24ZM163.563 35.048C164.779 35.048 165.627 34.808 166.107 34.328C166.603 33.832 166.851 33.056 166.851 32C166.851 30.928 166.603 30.144 166.107 29.648C165.627 29.152 164.779 28.904 163.563 28.904C162.347 28.904 161.491 29.152 160.995 29.648C160.515 30.144 160.275 30.928 160.275 32C160.275 33.056 160.515 33.832 160.995 34.328C161.491 34.808 162.347 35.048 163.563 35.048Z" fill="#EBCDCA"/>
</g>
<defs>
<clipPath id="clip0_27_19587">
<rect width="205" height="62" fill="white"/>
</clipPath>
</defs>
</svg>
