<svg width="62" height="62" viewBox="0 0 62 62" fill="none" xmlns="http://www.w3.org/2000/svg">
<g clip-path="url(#clip0_27_19556)">
<circle cx="31" cy="31" r="31" transform="rotate(-180 31 31)" fill="#D1889C"/>
<path d="M14 29.5C13.1716 29.5 12.5 30.1716 12.5 31C12.5 31.8284 13.1716 32.5 14 32.5V29.5ZM49.0607 32.0607C49.6464 31.4749 49.6464 30.5251 49.0607 29.9393L39.5147 20.3934C38.9289 19.8076 37.9792 19.8076 37.3934 20.3934C36.8076 20.9792 36.8076 21.9289 37.3934 22.5147L45.8787 31L37.3934 39.4853C36.8076 40.0711 36.8076 41.0208 37.3934 41.6066C37.9792 42.1924 38.9289 42.1924 39.5147 41.6066L49.0607 32.0607ZM14 32.5H48V29.5H14V32.5Z" fill="#F4F1EC"/>
</g>
<defs>
<clipPath id="clip0_27_19556">
<rect width="62" height="62" fill="white"/>
</clipPath>
</defs>
</svg>
