<svg width="62" height="62" viewBox="0 0 62 62" fill="none" xmlns="http://www.w3.org/2000/svg">
<g clip-path="url(#clip0_27_19563)">
<circle cx="31" cy="31" r="31" fill="#D1889C"/>
<path d="M32.5 16C32.5 15.1716 31.8284 14.5 31 14.5C30.1716 14.5 29.5 15.1716 29.5 16L32.5 16ZM29.9393 40.0607C30.5251 40.6464 31.4749 40.6464 32.0607 40.0607L41.6066 30.5147C42.1924 29.9289 42.1924 28.9792 41.6066 28.3934C41.0208 27.8076 40.0711 27.8076 39.4853 28.3934L31 36.8787L22.5147 28.3934C21.9289 27.8076 20.9792 27.8076 20.3934 28.3934C19.8076 28.9792 19.8076 29.9289 20.3934 30.5147L29.9393 40.0607ZM29.5 16L29.5 39L32.5 39L32.5 16L29.5 16Z" fill="#F4F1EC"/>
<path d="M17 37V45H45V37" stroke="#F4F1EC" stroke-width="3" stroke-linejoin="round"/>
</g>
<defs>
<clipPath id="clip0_27_19563">
<rect width="62" height="62" fill="white"/>
</clipPath>
</defs>
</svg>
