<svg width="62" height="62" viewBox="0 0 62 62" fill="none" xmlns="http://www.w3.org/2000/svg">
<g clip-path="url(#clip0_27_19557)">
<circle cx="31" cy="31" r="31" fill="#D1889C"/>
<path d="M48 32.5C48.8284 32.5 49.5 31.8284 49.5 31C49.5 30.1716 48.8284 29.5 48 29.5L48 32.5ZM12.9393 29.9393C12.3536 30.5251 12.3536 31.4749 12.9393 32.0607L22.4853 41.6066C23.0711 42.1924 24.0208 42.1924 24.6066 41.6066C25.1924 41.0208 25.1924 40.0711 24.6066 39.4853L16.1213 31L24.6066 22.5147C25.1924 21.9289 25.1924 20.9792 24.6066 20.3934C24.0208 19.8076 23.0711 19.8076 22.4853 20.3934L12.9393 29.9393ZM48 29.5L14 29.5L14 32.5L48 32.5L48 29.5Z" fill="#F4F1EC"/>
</g>
<defs>
<clipPath id="clip0_27_19557">
<rect width="62" height="62" fill="white"/>
</clipPath>
</defs>
</svg>
