<svg width="62" height="62" viewBox="0 0 62 62" fill="none" xmlns="http://www.w3.org/2000/svg">
<g clip-path="url(#clip0_27_19560)">
<circle cx="31" cy="31" r="31" transform="rotate(-180 31 31)" fill="#D1889C"/>
<path d="M19.849 20.6194C20.3867 20.6194 20.8938 20.6186 21.381 20.6178C22.3004 20.6163 23.149 20.615 23.9985 20.6194C25.3943 20.6283 26.2854 21.3988 26.2608 22.5579C26.2363 23.6835 25.3698 24.4182 24.0141 24.4227C21.4123 24.4316 18.8106 24.4338 16.2088 24.4227C14.6856 24.416 13.9554 23.7036 13.9487 22.2095C13.9375 19.5474 13.9308 16.8875 13.9509 14.2254C13.9621 12.6733 15.2328 11.7152 16.5415 12.249C17.3745 12.5884 17.7386 13.2651 17.7475 14.1428C17.7534 14.7911 17.7515 15.4403 17.7496 16.1364C17.7486 16.5026 17.7475 16.8818 17.7475 17.2806C17.8792 17.1728 17.9918 17.0802 18.0922 16.9975C18.2728 16.849 18.4139 16.7329 18.556 16.6195C24.6529 11.78 31.384 10.6298 38.4926 13.8212C45.5945 17.0081 49.2415 22.7946 49.6926 30.5643C49.7954 32.3286 48.4286 33.4184 47.0194 32.7551C46.1216 32.333 45.9251 31.5424 45.8826 30.6246C45.628 25.2043 43.1915 21.0102 38.5976 18.1538C32.9808 14.6632 25.6512 15.3733 20.7133 19.7774C20.5597 19.9136 20.4137 20.0592 20.2184 20.2539C20.1127 20.3592 19.9926 20.479 19.849 20.6194Z" fill="#F4F1EC"/>
<path d="M19.849 20.6194C20.3867 20.6194 20.8938 20.6186 21.381 20.6178C22.3004 20.6163 23.149 20.615 23.9985 20.6194C25.3943 20.6283 26.2854 21.3988 26.2608 22.5579C26.2363 23.6835 25.3698 24.4182 24.0141 24.4227C21.4123 24.4316 18.8106 24.4338 16.2088 24.4227C14.6856 24.416 13.9554 23.7036 13.9487 22.2095C13.9375 19.5474 13.9308 16.8875 13.9509 14.2254C13.9621 12.6733 15.2328 11.7152 16.5415 12.249C17.3745 12.5884 17.7386 13.2651 17.7475 14.1428C17.7534 14.7911 17.7515 15.4403 17.7496 16.1364C17.7486 16.5026 17.7475 16.8818 17.7475 17.2806C17.8792 17.1728 17.9918 17.0802 18.0922 16.9975C18.2728 16.849 18.4139 16.7329 18.556 16.6195C24.6529 11.78 31.384 10.6298 38.4926 13.8212C45.5945 17.0081 49.2415 22.7946 49.6926 30.5643C49.7954 32.3286 48.4286 33.4184 47.0194 32.7551C46.1216 32.333 45.9251 31.5424 45.8826 30.6246C45.628 25.2043 43.1915 21.0102 38.5976 18.1538C32.9808 14.6632 25.6512 15.3733 20.7133 19.7774C20.5597 19.9136 20.4137 20.0592 20.2184 20.2539C20.1127 20.3592 19.9926 20.479 19.849 20.6194Z" stroke="#D1889C"/>
<path d="M41.6415 41.4806C41.1426 41.4806 40.6623 41.4837 40.1947 41.4866C39.1656 41.4932 38.1981 41.4993 37.2307 41.4717C35.8327 41.4337 34.955 40.2277 35.3816 38.9838C35.6607 38.1709 36.2704 37.7086 37.1168 37.6996C39.9844 37.6728 42.8542 37.6594 45.7217 37.6996C46.825 37.7153 47.5575 38.4701 47.5709 39.5778C47.6066 42.4164 47.6066 45.2571 47.5709 48.0956C47.5575 49.181 46.7111 49.9605 45.7039 49.9716C44.6676 49.985 43.8413 49.1855 43.7944 48.0443C43.7668 47.3429 43.7729 46.6404 43.7794 45.8822C43.7824 45.5347 43.7855 45.1755 43.7855 44.7993C43.6313 44.9226 43.5033 45.026 43.39 45.1175C43.2408 45.2381 43.1171 45.338 42.9926 45.4358C36.8846 50.2731 30.14 51.3808 23.0381 48.2051C15.963 45.0427 12.3272 39.2763 11.8426 31.5469C11.7331 29.8094 12.9972 28.724 14.4086 29.2868C15.3712 29.6709 15.6168 30.4749 15.6481 31.4375C15.7933 35.8393 17.5285 39.5175 20.8271 42.4164C26.8235 47.687 36.286 47.3185 41.6415 41.4806Z" fill="#F4F1EC"/>
<path d="M41.6415 41.4806C41.1426 41.4806 40.6623 41.4837 40.1947 41.4866C39.1656 41.4932 38.1981 41.4993 37.2307 41.4717C35.8327 41.4337 34.955 40.2277 35.3816 38.9838C35.6607 38.1709 36.2704 37.7086 37.1168 37.6996C39.9844 37.6728 42.8542 37.6594 45.7217 37.6996C46.825 37.7153 47.5575 38.4701 47.5709 39.5778C47.6066 42.4164 47.6066 45.2571 47.5709 48.0956C47.5575 49.181 46.7111 49.9605 45.7039 49.9716C44.6676 49.985 43.8413 49.1855 43.7944 48.0443C43.7668 47.3429 43.7729 46.6404 43.7794 45.8822C43.7824 45.5347 43.7855 45.1755 43.7855 44.7993C43.6313 44.9226 43.5033 45.026 43.39 45.1175C43.2408 45.2381 43.1171 45.338 42.9926 45.4358C36.8846 50.2731 30.14 51.3808 23.0381 48.2051C15.963 45.0427 12.3272 39.2763 11.8426 31.5469C11.7331 29.8094 12.9972 28.724 14.4086 29.2868C15.3712 29.6709 15.6168 30.4749 15.6481 31.4375C15.7933 35.8393 17.5285 39.5175 20.8271 42.4164C26.8235 47.687 36.286 47.3185 41.6415 41.4806Z" stroke="#D1889C"/>
</g>
<defs>
<clipPath id="clip0_27_19560">
<rect width="62" height="62" fill="white"/>
</clipPath>
</defs>
</svg>
